<svg width="34" height="49" viewBox="0 0 34 49" fill="none" xmlns="http://www.w3.org/2000/svg">
<path d="M28.1894 26.1297C28.1439 20.0809 32.3367 17.1382 32.5285 17.0012C30.1539 12.8667 26.4733 12.3018 25.1799 12.2567C22.0887 11.8683 19.0902 14.4657 17.5155 14.4657C15.9094 14.4657 13.4845 12.2943 10.8711 12.3581C7.50797 12.42 4.36175 14.7453 2.6362 18.3562C-0.924914 25.7187 1.73099 36.5382 5.1428 42.4894C6.84949 45.404 8.84378 48.6583 11.4541 48.5438C14.0079 48.418 14.9618 46.5995 18.0436 46.5995C21.0971 46.5995 21.9929 48.5438 24.655 48.4706C27.3958 48.418 29.1214 45.5429 30.7683 42.602C32.7406 39.2614 33.5327 35.9714 33.5641 35.8025C33.4997 35.7762 28.2413 33.3796 28.1894 26.1297Z" fill="black"/>
<path d="M23.1605 8.34183C24.534 6.29054 25.4738 3.49981 25.2129 0.667786C23.2249 0.772884 20.7388 2.30995 19.3071 4.3162C18.0404 6.0841 16.9089 8.98181 17.2012 11.7069C19.4344 11.9058 21.7273 10.3612 23.1605 8.34183Z" fill="black"/>
</svg>
